<svg width="28" height="27" viewBox="0 0 28 27" fill="none" xmlns="http://www.w3.org/2000/svg">
<g clip-path="url(#clip0_826_3171)">
<path d="M23.7968 8.07563C23.8073 8.31315 23.8073 8.53987 23.8073 8.77738C23.8177 15.9784 18.527 24.2915 8.85187 24.2915C5.99826 24.2915 3.19673 23.4386 0.790955 21.8407C1.20754 21.8947 1.62412 21.9163 2.04071 21.9163C4.40483 21.9163 6.70646 21.0958 8.57067 19.5735C6.32112 19.5304 4.34234 18.0081 3.65497 15.7841C4.44649 15.946 5.25883 15.9136 6.02951 15.6869C3.58207 15.1903 1.822 12.9555 1.81159 10.3536C1.81159 10.332 1.81159 10.3104 1.81159 10.2888C2.54061 10.7099 3.36337 10.9474 4.19653 10.969C1.8949 9.37117 1.1763 6.18631 2.57185 3.6924C5.24841 7.10398 9.18514 9.16605 13.4135 9.39277C12.9865 7.50344 13.5697 5.51695 14.934 4.17822C17.0482 2.11616 20.3808 2.22412 22.3805 4.41574C23.5573 4.17822 24.6925 3.72478 25.7235 3.08781C25.3278 4.35096 24.505 5.41978 23.4115 6.09994C24.453 5.97038 25.4736 5.67889 26.4317 5.24704C25.7235 6.34825 24.8279 7.29831 23.7968 8.07563Z" fill="white"/>
</g>
<defs>
<clipPath id="clip0_826_3171">
<rect x="0.116211" width="26.9903" height="26.9903" fill="white"/>
</clipPath>
</defs>
</svg>
